<?xml version="1.0" encoding="UTF-8"?>
<!--Generator: Apple Native CoreSVG 341-->
<!DOCTYPE svg
PUBLIC "-//W3C//DTD SVG 1.1//EN"
       "http://www.w3.org/Graphics/SVG/1.1/DTD/svg11.dtd">
<svg version="1.1" xmlns="http://www.w3.org/2000/svg" xmlns:xlink="http://www.w3.org/1999/xlink" viewBox="0 0 29.657 29.1301">
 <g>
  <rect height="29.1301" opacity="0" width="29.657" x="0" y="0"/>
  <path d="M21.4369 4.22132L19.5465 6.11169L8.9386 6.11169C6.93665 6.11169 5.80139 7.24694 5.80139 9.24889L5.80139 20.6747C5.80139 22.6888 6.93665 23.8119 8.9386 23.8119L20.3644 23.8119C22.3785 23.8119 23.5016 22.6888 23.5016 20.6747L23.5016 10.162L25.4004 8.25965C25.446 8.57411 25.4669 8.90927 25.4669 9.2611L25.4669 20.6747C25.4669 23.9584 23.6481 25.7772 20.3644 25.7772L8.9386 25.7772C5.66711 25.7772 3.83606 23.9584 3.83606 20.6747L3.83606 9.2611C3.83606 5.97741 5.66711 4.14635 8.9386 4.14635L20.3644 4.14635C20.7422 4.14635 21.1007 4.1706 21.4369 4.22132Z" fill="white" fill-opacity="0.85"/>
  <path d="M12.1124 17.8671L14.4928 16.8295L25.8942 5.4403L24.2218 3.79235L12.8326 15.1815L11.734 17.4764C11.6364 17.684 11.8805 17.9647 12.1124 17.8671ZM26.7975 4.54919L27.6764 3.64587C28.0914 3.20641 28.0914 2.62048 27.6764 2.21764L27.3956 1.92468C27.0172 1.54626 26.4191 1.59509 26.0162 1.98571L25.1251 2.86462Z" fill="white" fill-opacity="0.85"/>
 </g>
</svg>
